<svg viewBox="0 0 891 400" xmlns="http://www.w3.org/2000/svg"><g><g><g><g><g><line x1="41.0620002746582" y1="377.95999908447266" x2="36.0620002746582" y2="377.95999908447266" style="visibility: inherit;" fill="rgb(0, 0, 0)" stroke="rgb(204, 204, 204)" stroke-width="1px"></line><line x1="41.0620002746582" y1="335.96444363064234" x2="36.0620002746582" y2="335.96444363064234" style="visibility: inherit;" fill="rgb(0, 0, 0)" stroke="rgb(204, 204, 204)" stroke-width="1px"></line><line x1="41.0620002746582" y1="293.9688881768121" x2="36.0620002746582" y2="293.9688881768121" style="visibility: inherit;" fill="rgb(0, 0, 0)" stroke="rgb(204, 204, 204)" stroke-width="1px"></line><line x1="41.0620002746582" y1="251.97333272298178" x2="36.0620002746582" y2="251.97333272298178" style="visibility: inherit;" fill="rgb(0, 0, 0)" stroke="rgb(204, 204, 204)" stroke-width="1px"></line><line x1="41.0620002746582" y1="209.9777772691515" x2="36.0620002746582" y2="209.9777772691515" style="visibility: inherit;" fill="rgb(0, 0, 0)" stroke="rgb(204, 204, 204)" stroke-width="1px"></line><line x1="41.0620002746582" y1="167.98222181532117" x2="36.0620002746582" y2="167.98222181532117" style="visibility: inherit;" fill="rgb(0, 0, 0)" stroke="rgb(204, 204, 204)" stroke-width="1px"></line><line x1="41.0620002746582" y1="125.9866663614909" x2="36.0620002746582" y2="125.9866663614909" style="visibility: inherit;" fill="rgb(0, 0, 0)" stroke="rgb(204, 204, 204)" stroke-width="1px"></line><line x1="41.0620002746582" y1="83.99111090766058" x2="36.0620002746582" y2="83.99111090766058" style="visibility: inherit;" fill="rgb(0, 0, 0)" stroke="rgb(204, 204, 204)" stroke-width="1px"></line><line x1="41.0620002746582" y1="41.99555545383032" x2="36.0620002746582" y2="41.99555545383032" style="visibility: inherit;" fill="rgb(0, 0, 0)" stroke="rgb(204, 204, 204)" stroke-width="1px"></line><line x1="41.0620002746582" y1="0" x2="36.0620002746582" y2="0" style="visibility: inherit;" fill="rgb(0, 0, 0)" stroke="rgb(204, 204, 204)" stroke-width="1px"></line></g><g transform="translate(31.062000274658203, 0)"><text style="text-anchor: end; visibility: hidden; font-family: &quot;Helvetica Neue&quot;, sans-serif; font-size: 12px; font-weight: 200;" x="0" y="377.95999908447266" dx="0em" dy="0.3em" fill="rgb(50, 49, 63)" stroke="none" stroke-width="1px">700</text><text style="text-anchor: end; visibility: inherit; font-family: &quot;Helvetica Neue&quot;, sans-serif; font-size: 12px; font-weight: 200;" x="0" y="335.96444363064234" dx="0em" dy="0.3em" fill="rgb(50, 49, 63)" stroke="none" stroke-width="1px">720</text><text style="text-anchor: end; visibility: inherit; font-family: &quot;Helvetica Neue&quot;, sans-serif; font-size: 12px; font-weight: 200;" x="0" y="293.9688881768121" dx="0em" dy="0.3em" fill="rgb(50, 49, 63)" stroke="none" stroke-width="1px">740</text><text style="text-anchor: end; visibility: inherit; font-family: &quot;Helvetica Neue&quot;, sans-serif; font-size: 12px; font-weight: 200;" x="0" y="251.97333272298178" dx="0em" dy="0.3em" fill="rgb(50, 49, 63)" stroke="none" stroke-width="1px">760</text><text style="text-anchor: end; visibility: inherit; font-family: &quot;Helvetica Neue&quot;, sans-serif; font-size: 12px; font-weight: 200;" x="0" y="209.9777772691515" dx="0em" dy="0.3em" fill="rgb(50, 49, 63)" stroke="none" stroke-width="1px">780</text><text style="text-anchor: end; visibility: inherit; font-family: &quot;Helvetica Neue&quot;, sans-serif; font-size: 12px; font-weight: 200;" x="0" y="167.98222181532117" dx="0em" dy="0.3em" fill="rgb(50, 49, 63)" stroke="none" stroke-width="1px">800</text><text style="text-anchor: end; visibility: inherit; font-family: &quot;Helvetica Neue&quot;, sans-serif; font-size: 12px; font-weight: 200;" x="0" y="125.9866663614909" dx="0em" dy="0.3em" fill="rgb(50, 49, 63)" stroke="none" stroke-width="1px">820</text><text style="text-anchor: end; visibility: inherit; font-family: &quot;Helvetica Neue&quot;, sans-serif; font-size: 12px; font-weight: 200;" x="0" y="83.99111090766058" dx="0em" dy="0.3em" fill="rgb(50, 49, 63)" stroke="none" stroke-width="1px">840</text><text style="text-anchor: end; visibility: inherit; font-family: &quot;Helvetica Neue&quot;, sans-serif; font-size: 12px; font-weight: 200;" x="0" y="41.99555545383032" dx="0em" dy="0.3em" fill="rgb(50, 49, 63)" stroke="none" stroke-width="1px">860</text><text style="text-anchor: end; visibility: hidden; font-family: &quot;Helvetica Neue&quot;, sans-serif; font-size: 12px; font-weight: 200;" x="0" y="0" dx="0em" dy="0.3em" fill="rgb(50, 49, 63)" stroke="none" stroke-width="1px">880</text></g><line x1="41.0620002746582" y1="0" x2="41.0620002746582" y2="377.95999908447266" fill="rgb(0, 0, 0)" stroke="rgb(204, 204, 204)" stroke-width="1px"></line></g></g><g transform="translate(41, 0)" clip-path="url(#clip_0)"><clipPath id="clip_0"><rect width="849" height="377"></rect></clipPath><g><g><g><line x1="0" y1="0" x2="0" y2="377.95999908447266" fill="rgb(0, 0, 0)" stroke="rgb(60, 60, 60)" stroke-width="1px" opacity="0.25"></line><line x1="70.82816664377847" y1="0" x2="70.82816664377847" y2="377.95999908447266" fill="rgb(0, 0, 0)" stroke="rgb(60, 60, 60)" stroke-width="1px" opacity="0.25"></line><line x1="141.65633328755695" y1="0" x2="141.65633328755695" y2="377.95999908447266" fill="rgb(0, 0, 0)" stroke="rgb(60, 60, 60)" stroke-width="1px" opacity="0.25"></line><line x1="212.48449993133545" y1="0" x2="212.48449993133545" y2="377.95999908447266" fill="rgb(0, 0, 0)" stroke="rgb(60, 60, 60)" stroke-width="1px" opacity="0.25"></line><line x1="283.3126665751139" y1="0" x2="283.3126665751139" y2="377.95999908447266" fill="rgb(0, 0, 0)" stroke="rgb(60, 60, 60)" stroke-width="1px" opacity="0.25"></line><line x1="354.14083321889245" y1="0" x2="354.14083321889245" y2="377.95999908447266" fill="rgb(0, 0, 0)" stroke="rgb(60, 60, 60)" stroke-width="1px" opacity="0.25"></line><line x1="424.9689998626709" y1="0" x2="424.9689998626709" y2="377.95999908447266" fill="rgb(0, 0, 0)" stroke="rgb(60, 60, 60)" stroke-width="1px" opacity="0.25"></line><line x1="495.7971665064494" y1="0" x2="495.7971665064494" y2="377.95999908447266" fill="rgb(0, 0, 0)" stroke="rgb(60, 60, 60)" stroke-width="1px" opacity="0.25"></line><line x1="566.6253331502278" y1="0" x2="566.6253331502278" y2="377.95999908447266" fill="rgb(0, 0, 0)" stroke="rgb(60, 60, 60)" stroke-width="1px" opacity="0.25"></line><line x1="637.4534997940063" y1="0" x2="637.4534997940063" y2="377.95999908447266" fill="rgb(0, 0, 0)" stroke="rgb(60, 60, 60)" stroke-width="1px" opacity="0.25"></line><line x1="708.2816664377849" y1="0" x2="708.2816664377849" y2="377.95999908447266" fill="rgb(0, 0, 0)" stroke="rgb(60, 60, 60)" stroke-width="1px" opacity="0.25"></line><line x1="779.1098330815632" y1="0" x2="779.1098330815632" y2="377.95999908447266" fill="rgb(0, 0, 0)" stroke="rgb(60, 60, 60)" stroke-width="1px" opacity="0.25"></line><line x1="849.9379997253418" y1="0" x2="849.9379997253418" y2="377.95999908447266" fill="rgb(0, 0, 0)" stroke="rgb(60, 60, 60)" stroke-width="1px" opacity="0.25"></line></g><g><line x1="0" y1="377.95999908447266" x2="849.9379997253418" y2="377.95999908447266" fill="rgb(0, 0, 0)" stroke="rgb(60, 60, 60)" stroke-width="1px" opacity="0.25"></line><line x1="0" y1="335.96444363064234" x2="849.9379997253418" y2="335.96444363064234" fill="rgb(0, 0, 0)" stroke="rgb(60, 60, 60)" stroke-width="1px" opacity="0.25"></line><line x1="0" y1="293.9688881768121" x2="849.9379997253418" y2="293.9688881768121" fill="rgb(0, 0, 0)" stroke="rgb(60, 60, 60)" stroke-width="1px" opacity="0.25"></line><line x1="0" y1="251.97333272298178" x2="849.9379997253418" y2="251.97333272298178" fill="rgb(0, 0, 0)" stroke="rgb(60, 60, 60)" stroke-width="1px" opacity="0.25"></line><line x1="0" y1="209.9777772691515" x2="849.9379997253418" y2="209.9777772691515" fill="rgb(0, 0, 0)" stroke="rgb(60, 60, 60)" stroke-width="1px" opacity="0.25"></line><line x1="0" y1="167.98222181532117" x2="849.9379997253418" y2="167.98222181532117" fill="rgb(0, 0, 0)" stroke="rgb(60, 60, 60)" stroke-width="1px" opacity="0.25"></line><line x1="0" y1="125.9866663614909" x2="849.9379997253418" y2="125.9866663614909" fill="rgb(0, 0, 0)" stroke="rgb(60, 60, 60)" stroke-width="1px" opacity="0.25"></line><line x1="0" y1="83.99111090766058" x2="849.9379997253418" y2="83.99111090766058" fill="rgb(0, 0, 0)" stroke="rgb(60, 60, 60)" stroke-width="1px" opacity="0.25"></line><line x1="0" y1="41.99555545383032" x2="849.9379997253418" y2="41.99555545383032" fill="rgb(0, 0, 0)" stroke="rgb(60, 60, 60)" stroke-width="1px" opacity="0.25"></line><line x1="0" y1="0" x2="849.9379997253418" y2="0" fill="rgb(0, 0, 0)" stroke="rgb(60, 60, 60)" stroke-width="1px" opacity="0.25"></line></g></g></g><g><g><line x1="0" y1="1847.804439968533" x2="849.9379997253418" y2="1847.804439968533" fill="rgb(0, 0, 0)" stroke="rgb(153, 153, 153)" stroke-width="1.5px"></line></g></g><g><g><line x1="70.82816664377847" y1="0" x2="70.82816664377847" y2="377.95999908447266" fill="rgb(0, 0, 0)" stroke="rgb(153, 153, 153)" stroke-width="1.5px"></line></g></g><g><g><g><g><g><path style="fill: none;" stroke="rgb(204, 51, 17)" stroke-width="2px" d="M106.24224996566772,-16.821284830847162L113.32506663004557,3.567222583319108L120.40788329442341,23.942920668487773L127.49069995880126,43.65020554137999L134.5735166231791,60.78642624022939L141.65633328755695,73.0678928825779L148.7391499519348,62.45475499263284L155.82196661631266,69.37050964578037L162.9047832806905,74.74568867009964L169.98759994506838,84.29684834179506L177.07041660944623,93.81190841160168L184.15323327382407,95.54405400988765L191.23604993820192,102.8883898243547L198.31886660257976,109.65112360942419L205.4016832669576,115.34076938181164L212.48449993133545,121.23409603835347L219.56731659571332,125.25598123641035L226.65013326009114,130.53123962171688L233.732949924469,135.06208495355125L240.81576658884683,139.69005252921048L247.8985832532247,144.6400353427102L254.98139991760252,147.91455679775459L262.0642165819804,149.98834271749092L269.1470332463582,153.59618006405532L276.2298499107361,157.2627428528737L283.3126665751139,160.5188437599235L290.3954832394918,161.52119507546908L297.4782999038696,164.88954347849727L304.5611165682475,168.05599627644526L311.64393323262533,169.87005891666314L318.7267498970032,172.0383222771161L325.809566561381,172.53706005762703L332.89238322575886,172.96241135395832L339.97519989013676,175.6368065137319L347.05801655451455,177.44524915934903L354.14083321889245,179.00375879560764L361.22364988327024,181.11387112410776L368.30646654764814,182.7799406796789L375.38928321202593,184.46167984460135L382.47209987640383,185.71305262711508L389.5549165407816,188.06756232351202L396.6377332051595,190.15068314405175L403.7205498695373,192.22984502107047L410.8033665339152,194.28507817228652L417.88618319829305,195.85056276222798L424.9689998626709,197.61834967782397L432.05181652704874,199.77180440420545L439.13463319142664,200.93247116567227L446.2174498558045,201.9614941683089L453.3002665201823,203.7782584946989L460.3830831845601,204.74519492327167L467.465899848938,205.99209860986554L474.54871651331587,207.22411887521434L481.63153317769365,208.45299493246466L488.7143498420715,209.3749955717058L495.7971665064494,210.4599414912934L502.87998317082724,211.638845740114L509.96279983520503,212.72745708539256L517.0456164995829,213.63557299656136L524.1284331639608,214.51863194213334L531.2112498283386,215.65472456773043L538.2940664927164,216.51161956195753L545.3768831570943,217.58390847945216L552.4596998214722,218.62715475722638L559.54251648585,219.34398208679016L566.6253331502278,219.96296841012696L573.7081498146058,220.07425940061447L580.7909664789836,220.83508215546382L587.8737831433614,221.34617625930588L594.9565998077392,222.18942739648747L602.0394164721172,222.43909427722758L609.122233136495,222.30367352442232L616.2050498008728,222.43940626387928L623.2878664652507,223.1040840248761L630.3706831296286,223.86313934950095L637.4534997940063,223.97876997337727L644.5363164583841,223.8733873287509L651.619133122762,223.8054920587592L658.7019497871399,224.5618085322534L665.7847664515177,225.14027187126896L672.8675831158955,225.2575272228707L679.9503997802735,225.5485427446134L687.0332164446513,226.0597524715406L694.1160331090291,226.64969274017648L701.1988497734069,226.96761624576564L708.2816664377849,227.62126921779262L715.3644831021627,228.3721932548444L722.4472997665405,228.81117801429505L729.5301164309184,229.3854531258855L736.6129330952963,229.643701012843L743.6957497596741,230.33570088979369L750.7785664240519,230.48277946055717L757.8613830884298,231.13497474800934L764.9441997528077,231.7168105341432L772.0270164171855,231.94925036367454" fill="none"></path></g><g><path style="fill: none;" stroke="rgb(0, 119, 187)" stroke-width="2px" d="M92.07661663691204,-15.927038510157615L99.15943330128988,12.676898297012087L106.24224996566772,45.61240408510821L113.32506663004557,65.51423462268099L120.40788329442341,84.07983699859767L127.49069995880126,102.90257341838179L134.5735166231791,117.01800412571271L141.65633328755695,125.72934079904016L148.7391499519348,121.9871475421738L155.82196661631266,118.27326138375082L162.9047832806905,124.81582112792174L169.98759994506838,131.5644154333493L177.07041660944623,138.0232827509008L184.15323327382407,143.17651457062257L191.23604993820192,147.0479260849155L198.31886660257976,153.1402983702806L205.4016832669576,160.31223995035893L212.48449993133545,164.20758801646608L219.56731659571332,169.1786802884794L226.65013326009114,173.39874776344453L233.732949924469,178.58449452942256L240.81576658884683,182.60735455165874L247.8985832532247,187.8393556937115L254.98139991760252,189.96034107050681L262.0642165819804,191.97740333236854L269.1470332463582,195.69896176331275L276.2298499107361,199.05058908156138L283.3126665751139,200.0164908875897L290.3954832394918,202.8100620416352L297.4782999038696,204.46398882216937L304.5611165682475,207.24740963373057L311.64393323262533,208.7046873615301L318.7267498970032,210.5206108342592L325.809566561381,212.1267264707107L332.89238322575886,212.70175466484446L339.97519989013676,215.2614012650958L347.05801655451455,216.8877396021103L354.14083321889245,218.18580237342366L361.22364988327024,220.7829787481376L368.30646654764814,222.28537582937352L375.38928321202593,223.26590225496008L382.47209987640383,224.41842751549495L389.5549165407816,226.51081393872116L396.6377332051595,227.93777670623487L403.7205498695373,229.96510086135822L410.8033665339152,231.26781564936894L417.88618319829305,230.92111940036648L424.9689998626709,232.91450878563234L432.05181652704874,234.29008703960753L439.13463319142664,235.43365127989304L446.2174498558045,235.85776725936046L453.3002665201823,237.165426262535L460.3830831845601,238.0995976293558L467.465899848938,238.95093959910662L474.54871651331587,239.86383822262874L481.63153317769365,240.89295624578594L488.7143498420715,241.94880103735883L495.7971665064494,243.0020050614382L502.87998317082724,244.04475705484208L509.96279983520503,244.98159387015934L517.0456164995829,245.69351500174244L524.1284331639608,246.23705610692124L531.2112498283386,247.2486602539642L538.2940664927164,247.79539458711946L545.3768831570943,248.553632106694L552.4596998214722,249.22251740665737L559.54251648585,249.54227532801372L566.6253331502278,249.8418793165027L573.7081498146058,249.7858268196711L580.7909664789836,249.30928122643704L587.8737831433614,249.35831805694863L594.9565998077392,249.93009178220777L602.0394164721172,250.17235648369578L609.122233136495,250.4837845412439L616.2050498008728,250.5149823319312L623.2878664652507,250.80995994834268L630.3706831296286,251.34912270140086L637.4534997940063,251.92302360253598L644.5363164583841,252.3657515464063L651.619133122762,253.10219604278888L658.7019497871399,253.14168007142803L665.7847664515177,252.76460188826314L672.8675831158955,253.0695941601751L679.9503997802735,252.88629574018412L687.0332164446513,253.51749133827008" fill="none"></path></g><g><path style="fill: none;" stroke="rgb(0, 153, 136)" stroke-width="2px" d="M106.24224996566772,-9.627672805613656L113.32506663004557,13.59353475544873L120.40788329442341,35.29703570237365L127.49069995880126,56.05239552770149L134.5735166231791,72.19378082129208L141.65633328755695,85.47742910647224L148.7391499519348,91.19298460645274L155.82196661631266,87.81655608932357L162.9047832806905,99.45583851188468L169.98759994506838,103.7941563272442L177.07041660944623,111.61730826112978L184.15323327382407,114.43581060456518L191.23604993820192,122.91026866225172L198.31886660257976,129.66732388209186L205.4016832669576,129.9736606075975L212.48449993133545,134.36876339467833L219.56731659571332,139.20593709509475L226.65013326009114,143.50952023798027L233.732949924469,149.19473084627646L240.81576658884683,154.78896728808542L247.8985832532247,159.78291818662072L254.98139991760252,163.44938562844305L262.0642165819804,166.87766765072507L269.1470332463582,171.0426680862935L276.2298499107361,175.04829133857695L283.3126665751139,171.5274830909511L290.3954832394918,170.69418223378312L297.4782999038696,172.97465878034058L304.5611165682475,174.28518512146042L311.64393323262533,176.9214911680309L318.7267498970032,179.0430166404375L325.809566561381,180.58295750826062L332.89238322575886,181.00008790712715L339.97519989013676,183.95778345998926L347.05801655451455,183.40654434636153L354.14083321889245,186.07254102480863L361.22364988327024,187.2215384633583L368.30646654764814,189.60030771710836L375.38928321202593,192.00486487456948L382.47209987640383,193.19119271823467L389.5549165407816,194.33137467935637L396.6377332051595,196.22587856833235L403.7205498695373,198.51314807199898L410.8033665339152,200.46503557524304L417.88618319829305,200.59115236075795L424.9689998626709,201.8310819029989L432.05181652704874,203.45316421369395L439.13463319142664,204.6045334350415L446.2174498558045,205.16871788968078L453.3002665201823,206.51823145822019L460.3830831845601,206.92394671158345L467.465899848938,207.76674171785996L474.54871651331587,208.99053720759574L481.63153317769365,210.24185903806466L488.7143498420715,211.52994861171436L495.7971665064494,212.62959367891233L502.87998317082724,214.0084825099112L509.96279983520503,215.04012272442554L517.0456164995829,216.06809221296672L524.1284331639608,216.75287397116605L531.2112498283386,217.8359933495948L538.2940664927164,218.49781609673116L545.3768831570943,219.35338704419567L552.4596998214722,220.11274682420333L559.54251648585,220.46118913964057L566.6253331502278,221.11114072754916L573.7081498146058,220.84219018814179L580.7909664789836,221.48845996487842L587.8737831433614,220.49982814825813L594.9565998077392,221.62392900296584L602.0394164721172,222.8204932758401L609.122233136495,222.44966961900332L616.2050498008728,222.56173554394584L623.2878664652507,223.0259608332632L630.3706831296286,223.89685156503393L637.4534997940063,224.77249053721638L644.5363164583841,224.94845676815768L651.619133122762,226.26487593276207L658.7019497871399,226.4910821774396L665.7847664515177,226.9934125086807L672.8675831158955,227.3632886135457L679.9503997802735,228.00078535890444L687.0332164446513,228.84416899797534L694.1160331090291,228.76895726232357L701.1988497734069,229.17198205792016L708.2816664377849,229.88812169591188L715.3644831021627,230.2771182039697L722.4472997665405,230.78088403398985L729.5301164309184,231.28108568662634L736.6129330952963,232.16904822349574L743.6957497596741,232.41851465120837L750.7785664240519,232.282767722096L757.8613830884298,232.58476305432336L764.9441997528077,233.01453967599048L772.0270164171855,233.26539586741495" fill="none"></path></g></g></g></g><g opacity="0.2"><g><g><g><path style="fill: none;" stroke="rgb(204, 51, 17)" stroke-width="2px" d="M77.91098330815633,-79.53344058968236L84.99379997253419,80.51309765111137L92.07661663691204,34.65953375664799L99.15943330128988,-16.15703637850629L106.24224996566772,183.16370226086065L113.32506663004557,125.47082129709372L120.40788329442341,166.00342733226717L127.49069995880126,200.60067520039416L134.5735166231791,214.24333535072446L141.65633328755695,195.20910103539418L148.7391499519348,-53.591624341214356L155.82196661631266,151.8221095904682L162.9047832806905,144.1358258905536L169.98759994506838,217.0145447488512L177.07041660944623,235.40131340819775L184.15323327382407,123.02398552828106L191.23604993820192,226.62438585784338L198.31886660257976,230.23043121857464L205.4016832669576,222.36946507821946L212.48449993133545,237.8708335438174L219.56731659571332,208.79267930381465L226.65013326009114,245.2615796739184L233.732949924469,238.0301367525244L240.81576658884683,249.38347009904683L247.8985832532247,266.793657543311L254.98139991760252,231.91227836890613L262.0642165819804,205.20342293772586L269.1470332463582,253.16394157968978L276.2298499107361,262.01289519866305L283.3126665751139,256.7023183207933L290.3954832394918,192.1018554238887L297.4782999038696,270.91644509029055L304.5611165682475,270.79136067219076L311.64393323262533,230.48060005477424L318.7267498970032,246.57688846793286L325.809566561381,190.16330326387092L332.89238322575886,188.40494443566487L339.97519989013676,275.30631862837663L347.05801655451455,246.58163039771736L354.14083321889245,240.08262338763518L361.22364988327024,265.8356595665734L368.30646654764814,251.270758153286L375.38928321202593,255.20758515655373L382.47209987640383,239.5521680530911L389.5549165407816,291.61894156792096L396.6377332051595,283.7557967030702L403.7205498695373,287.64071879923705L410.8033665339152,290.55674929618834L417.88618319829305,270.67191530572666L424.9689998626709,283.79014365394187L432.05181652704874,306.78952839098247L439.13463319142664,259.71459717634394L446.2174498558045,255.052383076309L453.3002665201823,299.2326865581589L460.3830831845601,256.4640683891872L467.465899848938,273.86464381361793L474.54871651331587,275.45024260535007L481.63153317769365,277.6645956544568L488.7143498420715,262.17219840737005L495.7971665064494,273.6097330476338L502.87998317082724,281.36663305325845L509.96279983520503,278.1378915110577L517.0456164995829,269.05337932603175L524.1284331639608,269.23562322207465L531.2112498283386,287.1150053944775L538.2940664927164,271.212495301162L545.3768831570943,287.0374684344874L552.4596998214722,287.17421543665176L559.54251648585,267.1125202812539L566.6253331502278,261.7886147358817L573.7081498146058,227.69798439311174L580.7909664789836,273.6613816342058L587.8737831433614,257.30813189083193L594.9565998077392,282.3059196313869L602.0394164721172,240.46979554652805L609.122233136495,212.39821202348813L616.2050498008728,232.49335700790658L623.2878664652507,272.9526553718166L630.3706831296286,281.491076670036L637.4534997940063,232.86425281321473L644.5363164583841,215.6782176714675L651.619133122762,218.4630120576256L658.7019497871399,284.7701851961643L665.7847664515177,271.7220605126013L672.8675831158955,234.80741874275265L679.9503997802735,249.5173975753934L687.0332164446513,268.6330136586472L694.1160331090291,276.3198099996196L701.1988497734069,254.0260756786214L708.2816664377849,283.85101977955395L715.3644831021627,293.655151849447L722.4472997665405,267.3755051438981L729.5301164309184,280.3581399323289L736.6129330952963,252.80086355051287L743.6957497596741,293.016785572239L750.7785664240519,243.93870942430158L757.8613830884298,291.3949174256685L764.9441997528077,286.00334326066854L772.0270164171855,253.8469076289252" fill="none"></path></g><g><path style="fill: none;" stroke="rgb(0, 119, 187)" stroke-width="2px" d="M77.91098330815633,-51.757266476191546L84.99379997253419,42.10269743490761L92.07661663691204,104.23274307434139L99.15943330128988,126.8068920539485L106.24224996566772,209.79655865522412L113.32506663004557,184.50797527464002L120.40788329442341,213.5202551387173L127.49069995880126,252.8084250061152L134.5735166231791,243.42337700096218L141.65633328755695,212.36501851499648L148.7391499519348,81.06918503854479L155.82196661631266,73.99525108215556L162.9047832806905,209.27609982130687L169.98759994506838,225.33919472597384L177.07041660944623,234.13483367493737L184.15323327382407,224.9308761234473L191.23604993820192,212.272743124595L198.31886660257976,261.76708381145465L205.4016832669576,295.2246024478589L212.48449993133545,241.3016838230503L219.56731659571332,272.4309149352549L226.65013326009114,265.17999165366507L233.732949924469,296.4358451071428L240.81576658884683,277.95833898056816L247.8985832532247,316.95250920132577L254.98139991760252,244.36766182940403L262.0642165819804,245.68220166183178L269.1470332463582,298.40515573062777L276.2298499107361,294.80333965862326L283.3126665751139,228.54871222850764L290.3954832394918,288.0389127408723L297.4782999038696,256.5253289955927L304.5611165682475,297.555325017083L311.64393323262533,257.3945119090689L318.7267498970032,272.94675999965204L325.809566561381,268.8895905080691L332.89238322575886,233.57836180671066L339.97519989013676,310.6544574858957L347.05801655451455,279.0623114985103L354.14083321889245,269.05760861475846L361.22364988327024,325.06056833153383L368.30646654764814,284.0477457854793L375.38928321202593,264.51381459907213L382.47209987640383,274.004722982658L389.5549165407816,318.53400686459565L396.6377332051595,292.058403114708L403.7205498695373,322.99718807394515L410.8033665339152,292.2898605522984L417.88618319829305,214.35098997285954L424.9689998626709,330.0834254157212L432.05181652704874,302.65059265068265L439.13463319142664,293.34961777900656L446.2174498558045,257.7393911806944L453.3002665201823,305.8710037756944L460.3830831845601,288.06595455667053L467.465899848938,285.29192563272596L474.54871651331587,290.41782356952837L481.63153317769365,298.85397297671943L488.7143498420715,302.41042031510995L495.7971665064494,304.30424454283593L502.87998317082724,305.7196465033831L509.96279983520503,301.2724853270894L517.0456164995829,289.13852780982336L524.1284331639608,279.91649966104626L531.2112498283386,310.87860978841263L538.2940664927164,282.69680843794873L545.3768831570943,297.66567100477147L552.4596998214722,293.1719876524837L559.54251648585,270.85057071436506L566.6253331502278,270.086479217735L573.7081498146058,245.94608364632714L580.7909664789836,216.22123271192734L587.8737831433614,252.8086813266441L594.9565998077392,290.69259917650163L602.0394164721172,267.6684795084228L609.122233136495,273.2634440130994L616.2050498008728,252.8258548020799L623.2878664652507,272.93227788976964L630.3706831296286,292.2826835774894L637.4534997940063,296.02368169668284L644.5363164583841,286.79486105389014L651.619133122762,311.0508571838287L658.7019497871399,256.28490033949106L665.7847664515177,222.39971090062883L672.8675831158955,277.90976624034295L679.9503997802735,237.78932361562943L687.0332164446513,306.08310901335335" fill="none"></path></g><g><path style="fill: none;" stroke="rgb(0, 153, 136)" stroke-width="2px" d="M84.99379997253419,-28.2858674851945L92.07661663691204,87.50231767270145L99.15943330128988,102.61702662046429L106.24224996566772,182.45395071635593L113.32506663004557,152.4339466929358L120.40788329442341,186.615058182405L127.49069995880126,221.3498220142831L134.5735166231791,216.74181970610906L141.65633328755695,217.58549872696037L148.7391499519348,153.6881230408093L155.82196661631266,47.561812059270835L162.9047832806905,249.71156037602987L169.98759994506838,164.07705039737178L177.07041660944623,228.03017579855708L184.15323327382407,159.1504416717837L191.23604993820192,265.6863528584932L198.31886660257976,250.1453828711813L205.4016832669576,135.73620215872975L212.48449993133545,221.35366682221647L219.56731659571332,239.67661166986863L226.65013326009114,237.1071265279807L233.732949924469,278.3969034055041L240.81576658884683,287.3851672319307L247.8985832532247,283.02156654805617L254.98139991760252,257.5012694093528L262.0642165819804,258.15655284146777L269.1470332463582,285.98681058655495L276.2298499107361,289.48507316488667L283.3126665751139,67.52469565078047L290.3954832394918,145.2710695130207L297.4782999038696,244.75816615517252L304.5611165682475,216.8051308767456L311.64393323262533,265.00441209137335L318.7267498970032,251.97487064615513L325.809566561381,235.00709243476027L332.89238322575886,196.14415832479588L339.97519989013676,294.1853508634622L347.05801655451455,162.33278919825486L354.14083321889245,290.55444241142834L361.22364988327024,233.35420950419373L368.30646654764814,287.3896528411864L375.38928321202593,293.1576337028657L382.47209987640383,244.2318119490907L389.5549165407816,244.47659805418354L396.6377332051595,281.3554831102516L403.7205498695373,303.473894189487L410.8033665339152,291.8957677391254L417.88618319829305,206.61882489827306L424.9689998626709,262.27216341363834L432.05181652704874,284.06389397879957L439.13463319142664,262.9157842616887L446.2174498558045,234.27696340820856L453.3002665201823,277.42288539571064L460.3830831845601,228.62458310505997L467.465899848938,253.64249200713303L474.54871651331587,276.76119395037335L481.63153317769365,280.7176294741014L488.7143498420715,285.290772190346L495.7971665064494,276.63495608989354L502.87998317082724,295.5646116294355L509.96279983520503,277.02738281962877L517.0456164995829,278.79996743718834L524.1284331639608,259.1840136815354L531.2112498283386,285.96425438001233L538.2940664927164,260.7460309846094L545.3768831570943,274.7698397614036L552.4596998214722,270.00689169351375L559.54251648585,243.68097913249963L566.6253331502278,265.0291470224115L573.7081498146058,202.41837223103892L580.7909664789836,266.3609884905396L587.8737831433614,150.93703480420064L594.9565998077392,301.76257017833285L602.0394164721172,309.23521071741516L609.122233136495,195.3254705555116L616.2050498008728,230.86264580308926L623.2878664652507,257.8412785909294L630.3706831296286,290.0154003391663L637.4534997940063,292.05981287761693L644.5363164583841,238.63261815568742L651.619133122762,329.85004557416414L658.7019497871399,244.4987697799328L665.7847664515177,267.44445536617036L672.8675831158955,257.48794074185037L679.9503997802735,280.5068058390869L687.0332164446513,299.0806884845253L694.1160331090291,222.43649289652498L701.1988497734069,263.47340957229545L708.2816664377849,291.49321634849895L715.3644831021627,264.0952431753899L722.4472997665405,275.0361567909234L729.5301164309184,275.67900867738706L736.6129330952963,311.792905114974L743.6957497596741,255.01508843935508L750.7785664240519,219.86354742749697L757.8613830884298,260.4877880517497L764.9441997528077,273.11362466396145L772.0270164171855,256.89801904460313" fill="none"></path></g></g></g></g></g></g><g transform="translate(41, 377)" clip-path="url(#clip_1)"><clipPath id="clip_1"><rect width="849" height="22"></rect></clipPath><g><g><line x1="0" y1="0" x2="0" y2="5" style="visibility: inherit;" fill="rgb(0, 0, 0)" stroke="rgb(204, 204, 204)" stroke-width="1px"></line><line x1="70.82816664377847" y1="0" x2="70.82816664377847" y2="5" style="visibility: inherit;" fill="rgb(0, 0, 0)" stroke="rgb(204, 204, 204)" stroke-width="1px"></line><line x1="141.65633328755695" y1="0" x2="141.65633328755695" y2="5" style="visibility: inherit;" fill="rgb(0, 0, 0)" stroke="rgb(204, 204, 204)" stroke-width="1px"></line><line x1="212.48449993133545" y1="0" x2="212.48449993133545" y2="5" style="visibility: inherit;" fill="rgb(0, 0, 0)" stroke="rgb(204, 204, 204)" stroke-width="1px"></line><line x1="283.3126665751139" y1="0" x2="283.3126665751139" y2="5" style="visibility: inherit;" fill="rgb(0, 0, 0)" stroke="rgb(204, 204, 204)" stroke-width="1px"></line><line x1="354.14083321889245" y1="0" x2="354.14083321889245" y2="5" style="visibility: inherit;" fill="rgb(0, 0, 0)" stroke="rgb(204, 204, 204)" stroke-width="1px"></line><line x1="424.9689998626709" y1="0" x2="424.9689998626709" y2="5" style="visibility: inherit;" fill="rgb(0, 0, 0)" stroke="rgb(204, 204, 204)" stroke-width="1px"></line><line x1="495.7971665064494" y1="0" x2="495.7971665064494" y2="5" style="visibility: inherit;" fill="rgb(0, 0, 0)" stroke="rgb(204, 204, 204)" stroke-width="1px"></line><line x1="566.6253331502278" y1="0" x2="566.6253331502278" y2="5" style="visibility: inherit;" fill="rgb(0, 0, 0)" stroke="rgb(204, 204, 204)" stroke-width="1px"></line><line x1="637.4534997940063" y1="0" x2="637.4534997940063" y2="5" style="visibility: inherit;" fill="rgb(0, 0, 0)" stroke="rgb(204, 204, 204)" stroke-width="1px"></line><line x1="708.2816664377849" y1="0" x2="708.2816664377849" y2="5" style="visibility: inherit;" fill="rgb(0, 0, 0)" stroke="rgb(204, 204, 204)" stroke-width="1px"></line><line x1="779.1098330815632" y1="0" x2="779.1098330815632" y2="5" style="visibility: inherit;" fill="rgb(0, 0, 0)" stroke="rgb(204, 204, 204)" stroke-width="1px"></line><line x1="849.9379997253418" y1="0" x2="849.9379997253418" y2="5" style="visibility: inherit;" fill="rgb(0, 0, 0)" stroke="rgb(204, 204, 204)" stroke-width="1px"></line></g><g transform="translate(0, 8)"><text style="text-anchor: middle; visibility: hidden; font-family: &quot;Helvetica Neue&quot;, sans-serif; font-size: 12px; font-weight: 200;" x="0" y="0" dx="0em" dy="0.95em" fill="rgb(50, 49, 63)" stroke="none" stroke-width="1px">-10</text><text style="text-anchor: middle; visibility: inherit; font-family: &quot;Helvetica Neue&quot;, sans-serif; font-size: 12px; font-weight: 200;" x="70.82816664377847" y="0" dx="0em" dy="0.95em" fill="rgb(50, 49, 63)" stroke="none" stroke-width="1px">0</text><text style="text-anchor: middle; visibility: inherit; font-family: &quot;Helvetica Neue&quot;, sans-serif; font-size: 12px; font-weight: 200;" x="141.65633328755695" y="0" dx="0em" dy="0.95em" fill="rgb(50, 49, 63)" stroke="none" stroke-width="1px">10</text><text style="text-anchor: middle; visibility: inherit; font-family: &quot;Helvetica Neue&quot;, sans-serif; font-size: 12px; font-weight: 200;" x="212.48449993133545" y="0" dx="0em" dy="0.95em" fill="rgb(50, 49, 63)" stroke="none" stroke-width="1px">20</text><text style="text-anchor: middle; visibility: inherit; font-family: &quot;Helvetica Neue&quot;, sans-serif; font-size: 12px; font-weight: 200;" x="283.3126665751139" y="0" dx="0em" dy="0.95em" fill="rgb(50, 49, 63)" stroke="none" stroke-width="1px">30</text><text style="text-anchor: middle; visibility: inherit; font-family: &quot;Helvetica Neue&quot;, sans-serif; font-size: 12px; font-weight: 200;" x="354.14083321889245" y="0" dx="0em" dy="0.95em" fill="rgb(50, 49, 63)" stroke="none" stroke-width="1px">40</text><text style="text-anchor: middle; visibility: inherit; font-family: &quot;Helvetica Neue&quot;, sans-serif; font-size: 12px; font-weight: 200;" x="424.9689998626709" y="0" dx="0em" dy="0.95em" fill="rgb(50, 49, 63)" stroke="none" stroke-width="1px">50</text><text style="text-anchor: middle; visibility: inherit; font-family: &quot;Helvetica Neue&quot;, sans-serif; font-size: 12px; font-weight: 200;" x="495.7971665064494" y="0" dx="0em" dy="0.95em" fill="rgb(50, 49, 63)" stroke="none" stroke-width="1px">60</text><text style="text-anchor: middle; visibility: inherit; font-family: &quot;Helvetica Neue&quot;, sans-serif; font-size: 12px; font-weight: 200;" x="566.6253331502278" y="0" dx="0em" dy="0.95em" fill="rgb(50, 49, 63)" stroke="none" stroke-width="1px">70</text><text style="text-anchor: middle; visibility: inherit; font-family: &quot;Helvetica Neue&quot;, sans-serif; font-size: 12px; font-weight: 200;" x="637.4534997940063" y="0" dx="0em" dy="0.95em" fill="rgb(50, 49, 63)" stroke="none" stroke-width="1px">80</text><text style="text-anchor: middle; visibility: inherit; font-family: &quot;Helvetica Neue&quot;, sans-serif; font-size: 12px; font-weight: 200;" x="708.2816664377849" y="0" dx="0em" dy="0.95em" fill="rgb(50, 49, 63)" stroke="none" stroke-width="1px">90</text><text style="text-anchor: middle; visibility: inherit; font-family: &quot;Helvetica Neue&quot;, sans-serif; font-size: 12px; font-weight: 200;" x="779.1098330815632" y="0" dx="0em" dy="0.95em" fill="rgb(50, 49, 63)" stroke="none" stroke-width="1px">100</text><text style="text-anchor: middle; visibility: hidden; font-family: &quot;Helvetica Neue&quot;, sans-serif; font-size: 12px; font-weight: 200;" x="849.9379997253418" y="0" dx="0em" dy="0.95em" fill="rgb(50, 49, 63)" stroke="none" stroke-width="1px">110</text></g><line x1="0" y1="0" x2="849.9379997253418" y2="0" fill="rgb(0, 0, 0)" stroke="rgb(204, 204, 204)" stroke-width="1px"></line></g></g></g></g></svg>